<svg width="30" height="30" viewBox="0 0 30 30" fill="none" xmlns="http://www.w3.org/2000/svg">
<g clip-path="url(#clip0)">
<path d="M13.7496 28.7305C6.16863 28.7305 0 22.562 0 14.981C0 7.39999 6.16863 1.23135 13.7496 1.23135C16.3858 1.23135 18.9506 1.98252 21.1668 3.40498C21.6019 3.68512 21.7294 4.26509 21.4492 4.70133C21.1682 5.13756 20.5893 5.26367 20.1531 4.98376C18.2406 3.75493 16.0258 3.1063 13.7496 3.1063C7.20223 3.1063 1.87494 8.43359 1.87494 14.981C1.87494 21.5282 7.20223 26.8555 13.7496 26.8555C20.2968 26.8555 25.6241 21.5282 25.6241 14.981C25.6241 14.5896 25.6054 14.2022 25.5692 13.8211C25.5193 13.3047 25.8967 12.8472 26.4117 12.7973C26.9292 12.7497 27.3853 13.1248 27.4354 13.6398C27.4778 14.0811 27.4991 14.5285 27.4991 14.981C27.4991 22.562 21.3307 28.7305 13.7496 28.7305Z" fill="white"/>
<path d="M15.3118 18.1058C15.072 18.1058 14.8319 18.0145 14.6495 17.8309L9.02465 12.2061C8.65845 11.8397 8.65845 11.246 9.02465 10.8798C9.39085 10.5136 9.98455 10.5136 10.3507 10.8798L15.3132 15.8422L28.3989 2.75634C28.7653 2.39014 29.359 2.39014 29.7252 2.75634C30.0914 3.12254 30.0914 3.71624 29.7252 4.08244L15.9756 17.8321C15.7918 18.0145 15.5519 18.1058 15.3118 18.1058Z" fill="white"/>
</g>
<defs>
<clipPath id="clip0">
<rect width="30" height="30" fill="white"/>
</clipPath>
</defs>
</svg>
